<svg xmlns="http://www.w3.org/2000/svg" xmlns:xlink="http://www.w3.org/1999/xlink" viewBox="0 0 249.27 293.19"><defs><style>.cls-1,.cls-4{fill:none;}.cls-2{clip-path:url(#clip-path);}.cls-3{fill:#ffffff;}.cls-4{stroke:#774785;stroke-miterlimit:10;stroke-width:2.22px;}.cls-5{fill:#774785;}</style><clipPath id="clip-path"><rect class="cls-1" width="249.27" height="293.19"/></clipPath></defs><title>Fichier 1</title><g id="Calque_2" data-name="Calque 2"><g id="Calque_1-2" data-name="Calque 1"><g class="cls-2"><path class="cls-3" d="M241.49,212.17a37.42,37.42,0,0,0-12.09-8.76s-3.29-1.33,1.5-4.72c5.17-3.65,9.59-12.87,8.47-24.28Q237.83,158.74,225,150.8c-8.53-5.29-13.59-5.9-25.86-4.69L145,151.48c-9.55,1-19.71,9.31-18.9,17.51l8.65,87.6c.82,8.33,5.72,16,19.15,14.65l13-1.29s5.84-.57,5.81-.2-.49,7.48-1.09,15.47c-.64,8.46,3.79,9.19,9.86,1.62l15.88-19.9,12.27-1.21q19.74-2,29.78-12.18T248,228q-1-9.79-6.47-15.87"/><path class="cls-4" d="M241.49,212.17a37.42,37.42,0,0,0-12.09-8.76s-3.29-1.33,1.5-4.72c5.17-3.65,9.59-12.87,8.47-24.28Q237.83,158.74,225,150.8c-8.53-5.29-13.59-5.9-25.86-4.69L145,151.48c-9.55,1-19.71,9.31-18.9,17.51l8.65,87.6c.82,8.33,5.72,16,19.15,14.65l13-1.29s5.84-.57,5.81-.2-.49,7.48-1.09,15.47c-.64,8.46,3.79,9.19,9.86,1.62l15.88-19.9,12.27-1.21q19.74-2,29.78-12.18T248,228Q247,218.25,241.49,212.17Z"/><path class="cls-5" d="M154.06,242.62l-2.33.23a5.65,5.65,0,0,0-.47-.54,2.09,2.09,0,0,0-1.75-.6,2.41,2.41,0,0,0-.86.25,2.61,2.61,0,0,0-1.37,2.61,3.12,3.12,0,0,0,.29,1,2.54,2.54,0,0,0,2.48,1.4,2,2,0,0,0,1.25-.61,2.1,2.1,0,0,0,.36-.42,3.82,3.82,0,0,0,.26-.54l2.6-.25q0,.31-.09.63a3.78,3.78,0,0,1-.83,1.63,4.47,4.47,0,0,1-.64.73,4.93,4.93,0,0,1-2.81,1.19,4.77,4.77,0,0,1-3.15-.8,5.14,5.14,0,0,1-2.18-3.76,5.27,5.27,0,0,1,.91-3.47,4.68,4.68,0,0,1,3.42-1.94,4.75,4.75,0,0,1,1.31.05,3.48,3.48,0,0,1,1.34.65l-.07-.8,2-.19Z"/><path class="cls-5" d="M157.88,244.42a2.59,2.59,0,0,0,2.59,1.49,2.23,2.23,0,0,0,1-.33,2.62,2.62,0,0,0,1.3-2.53,2.66,2.66,0,0,0-1-1.82,2.71,2.71,0,0,0-1.85-.53,2.61,2.61,0,0,0-1.63.81,2.82,2.82,0,0,0-.71,1.94,2.24,2.24,0,0,0,.28,1m-1.79-4a5.2,5.2,0,0,1,3.64-2.11,5,5,0,0,1,5.48,4.54,5.2,5.2,0,0,1-.81,3.28,5,5,0,0,1-3.71,2.27,5.1,5.1,0,0,1-5.51-4.6,5.21,5.21,0,0,1,.91-3.38"/><path class="cls-5" d="M167.57,245.51l-.55-5.75-1,.09-.19-2,4.15-.38q1.26,2.93,2.63,6l1.38-6.4,4.16-.4.18,2-.92.09.56,5.76.92-.09.19,2-4,.39-.19-2,.88-.08-.44-4.51-1.52,6.69-1.73.16-2.74-6.18.43,4.39.89-.09.2,2-4,.39-.2-2Z"/></g><polygon class="cls-5" points="181.27 244.2 180.72 238.48 179.81 238.56 179.61 236.58 183.9 236.16 184.09 238.15 183.16 238.24 183.71 243.97 184.62 243.88 184.81 245.86 180.54 246.28 180.34 244.29 181.27 244.2"/><g class="cls-2"><path class="cls-5" d="M194.59,238.71l-2.33.23a5.65,5.65,0,0,0-.47-.54,2.05,2.05,0,0,0-1.74-.6,2.5,2.5,0,0,0-.87.25,2.59,2.59,0,0,0-1.36,2.61,2.87,2.87,0,0,0,.29,1,2.52,2.52,0,0,0,2.47,1.4,2,2,0,0,0,1.25-.61,2.1,2.1,0,0,0,.36-.42,3.82,3.82,0,0,0,.26-.54l2.61-.25c0,.21-.06.42-.1.63a3.67,3.67,0,0,1-.83,1.63,4.47,4.47,0,0,1-.64.73,4.86,4.86,0,0,1-2.81,1.19,4.78,4.78,0,0,1-3.15-.8,5.13,5.13,0,0,1-2.17-3.76,5.18,5.18,0,0,1,.9-3.47,4.69,4.69,0,0,1,3.42-1.94,4.75,4.75,0,0,1,1.31.05,3.51,3.51,0,0,1,1.35.65l-.08-.8,2-.19Z"/><path class="cls-5" d="M205.79,236.89l-2,.2a1.63,1.63,0,0,0-.19-.48,1,1,0,0,0-.9-.39.86.86,0,0,0-.82.94c.08.72,1.07.86,1.63,1a5.24,5.24,0,0,1,1.77.61,2.82,2.82,0,0,1,1.34,2.12,2.9,2.9,0,0,1-.14,1.27,3,3,0,0,1-2.56,2.06,6.11,6.11,0,0,1-.62,0,2.24,2.24,0,0,1-1.2-.45l0,.42-1.86.18-.3-3.07,2.15-.2a1.17,1.17,0,0,0,.55,1,1,1,0,0,0,.67.14,1,1,0,0,0,.9-1,.81.81,0,0,0-.2-.45,1.47,1.47,0,0,0-.93-.45,6.7,6.7,0,0,1-2.32-.82,2.76,2.76,0,0,1-1.24-2,2.94,2.94,0,0,1,2.72-3.23h.43a2.56,2.56,0,0,1,1.16.43l0-.44,1.74-.17Z"/></g><polygon class="cls-5" points="214.4 233.22 214.72 236.55 212.84 236.73 212.73 235.53 211.75 235.62 212.28 241.21 213.24 241.12 213.43 243.1 209.14 243.52 208.95 241.53 209.91 241.44 209.37 235.85 208.4 235.95 208.51 237.16 206.64 237.34 206.31 234 214.4 233.22"/><g class="cls-2"><path class="cls-5" d="M219,237.72l.76-.08.45-.08a1.35,1.35,0,0,0,1-.76,1.62,1.62,0,0,0,.13-.81,1.29,1.29,0,0,0-.28-.7c-.38-.49-.84-.49-1.43-.47l-.89.08Zm-2.08,3-.56-5.78-.91.09-.19-1.93,4.11-.4c.31,0,.61,0,.92,0a3.12,3.12,0,0,1,2.61,1.11,3.19,3.19,0,0,1,.75,1.85,3.08,3.08,0,0,1-.85,2.6,2.79,2.79,0,0,1-.87.53l1.35,1.36,1-.1.19,2-2.58.24c-.93-1.15-1.84-2.28-2.76-3.38l.16,1.63.58-.06.19,2-3.86.37-.19-2Z"/></g><polygon class="cls-5" points="226.39 239.85 225.84 234.12 224.93 234.21 224.74 232.23 229.03 231.81 229.22 233.8 228.28 233.89 228.84 239.61 229.75 239.53 229.94 241.51 225.66 241.92 225.47 239.94 226.39 239.85"/><g class="cls-2"><path class="cls-5" d="M234.23,235.82l.87-.08a1.9,1.9,0,0,0,.52-.12,1.16,1.16,0,0,0,.66-1.18,1.05,1.05,0,0,0-.23-.59c-.35-.45-.77-.44-1.31-.42l-.73.07Zm-2.06,3.47-.55-5.76-.94.09-.19-2,3.89-.38a6.91,6.91,0,0,1,1.7,0,2.79,2.79,0,0,1,1.9,1.12,3.38,3.38,0,0,1,.67,1.74,3.28,3.28,0,0,1-1.83,3.35,4.42,4.42,0,0,1-1.47.33l-.91.09.1,1.12.91-.09.2,2-4.24.41-.19-2Z"/></g><polygon class="cls-5" points="147.06 259.6 146.51 253.88 145.59 253.97 145.4 252 152.79 251.28 153.1 254.47 150.77 254.69 150.66 253.65 149 253.81 149.15 255.41 151.36 255.19 151.57 257.43 149.34 257.64 149.5 259.37 150.41 259.28 150.61 261.28 146.32 261.69 146.13 259.69 147.06 259.6"/><polygon class="cls-5" points="161.39 253.59 159.07 253.81 158.98 252.83 157.35 252.99 157.5 254.49 159.73 254.28 159.95 256.52 157.71 256.74 157.88 258.41 159.52 258.25 159.41 257.12 161.71 256.9 162.03 260.18 154.65 260.89 154.46 258.89 155.41 258.8 154.86 253.09 153.9 253.18 153.71 251.21 161.09 250.5 161.39 253.59"/><g class="cls-2"><path class="cls-5" d="M169.28,252.53l-2,.2a2.13,2.13,0,0,0-.2-.48,1,1,0,0,0-.9-.39.86.86,0,0,0-.82.94c.09.72,1.08.86,1.63,1a5.24,5.24,0,0,1,1.77.61,2.85,2.85,0,0,1,1.35,2.12,3.25,3.25,0,0,1-.14,1.27,3,3,0,0,1-2.56,2,3.81,3.81,0,0,1-.63,0,2.26,2.26,0,0,1-1.2-.46l0,.43-1.86.18-.29-3.07,2.15-.2a1.18,1.18,0,0,0,.54,1,1.12,1.12,0,0,0,.67.14,1,1,0,0,0,.9-1,.86.86,0,0,0-.19-.45,1.52,1.52,0,0,0-.94-.46,6.38,6.38,0,0,1-2.32-.82,2.74,2.74,0,0,1-1.24-2,3,3,0,0,1,2.73-3.23,3.47,3.47,0,0,1,.43,0,2.41,2.41,0,0,1,1.15.43l0-.44,1.74-.17Z"/></g><polygon class="cls-5" points="177.89 248.86 178.21 252.19 176.34 252.37 176.22 251.17 175.24 251.26 175.78 256.85 176.73 256.76 176.92 258.74 172.63 259.16 172.44 257.17 173.41 257.08 172.87 251.49 171.89 251.58 172.01 252.8 170.13 252.98 169.81 249.64 177.89 248.86"/><polygon class="cls-5" points="180.4 256.4 179.85 250.68 178.94 250.77 178.75 248.78 183.03 248.37 183.23 250.35 182.29 250.44 182.84 256.17 183.75 256.08 183.94 258.06 179.67 258.48 179.47 256.49 180.4 256.4"/><g class="cls-2"><path class="cls-5" d="M187.75,247.92l.19,1.92-.72.07,1.74,4.72c.17-1,.34-2,.52-2.93.13-.7.27-1.37.42-2l-.79.08-.19-1.95,4.11-.39.19,1.94-.95.09-1.85,8-2.59.25-3.1-7.51-.93.09-.19-2Z"/><path class="cls-5" d="M196.79,252.33l1.7-.16-1.06-2.48ZM194,255.1l1.56-6-.8.08-.19-1.95,3.82-.37c.47,1,1,2,1.41,3,.7,1.51,1.36,3,2,4.51l1.09-.1.2,2-4.14.4-.18-1.79.75-.07-.35-.87-2.79.27-.2.89,1-.1.18,1.8-4.25.41-.19-2Z"/></g><polygon class="cls-5" points="204.57 254.07 204.02 248.3 203.08 248.4 202.89 246.45 207.14 246.04 207.33 247.97 206.46 248.06 207.01 253.77 208.76 253.6 208.62 252.15 210.84 251.93 211.18 255.42 203.83 256.13 203.64 254.16 204.57 254.07"/><g class="cls-2"><path class="cls-5" d="M148,233.79l1.17-.12c.94-.12,1.24-.27,1.5-.68a1.27,1.27,0,0,0-.06-1.44,1.58,1.58,0,0,0-1.54-.46l-1.31.13Zm-.45-4.95,1.15-.11c.51,0,.91-.1,1.16-.55a1,1,0,0,0,.16-.63,1.11,1.11,0,0,0-.37-.71,1.47,1.47,0,0,0-1.14-.24l-1.17.11ZM145,234.19l-.69-7.25-1.16.11-.23-2.48,5.64-.54c1.35-.11,2.75-.17,3.68,1a3.39,3.39,0,0,1,.65,1.67,3,3,0,0,1-.64,2.17,3.48,3.48,0,0,1-.65.56,7.38,7.38,0,0,1,.81.36,3.23,3.23,0,0,1,1.45,2.46,3.79,3.79,0,0,1-1.09,3.05,5.89,5.89,0,0,1-3.32,1l-5.36.51-.25-2.56Z"/><path class="cls-5" d="M159.38,229.25l1-.1.57-.1a1.72,1.72,0,0,0,1.25-1,2,2,0,0,0,.17-1,1.63,1.63,0,0,0-.35-.88c-.48-.63-1.06-.62-1.82-.61l-1.12.11Zm-2.65,3.84-.7-7.32-1.15.11-.23-2.44,5.21-.5c.38,0,.77,0,1.16,0a4,4,0,0,1,3.3,1.41,4.1,4.1,0,0,1,1,2.35,3.91,3.91,0,0,1-1.08,3.29,3.78,3.78,0,0,1-1.1.67l1.7,1.73,1.27-.13.24,2.5L163,235c-1.18-1.45-2.34-2.89-3.49-4.28l.2,2.06.73-.07.24,2.51-4.89.47-.24-2.52Z"/><path class="cls-5" d="M170.9,221.87l.23,2.47-.82.08.47,5a4.29,4.29,0,0,0,.07.5c.25,1.39,1,1.63,1.66,1.57a1.53,1.53,0,0,0,1-.4,2.42,2.42,0,0,0,.49-2.11l-.46-4.83-.93.09-.23-2.46,5-.48.23,2.46-1.14.11.49,5.09c0,.26,0,.52,0,.77a4.2,4.2,0,0,1-1.14,3.19,4.66,4.66,0,0,1-3.19,1.49,4.45,4.45,0,0,1-3.49-1.06,4,4,0,0,1-.86-1.28,7.73,7.73,0,0,1-.44-2l-.5-5.29-1.16.11-.23-2.47Z"/><path class="cls-5" d="M187,224l-2.59.25a2.57,2.57,0,0,0-.25-.61,1.22,1.22,0,0,0-1.14-.49,1.09,1.09,0,0,0-1,1.19c.11.9,1.36,1.09,2.06,1.25a6.82,6.82,0,0,1,2.25.77A3.63,3.63,0,0,1,188,229a4.16,4.16,0,0,1-.18,1.6,3.85,3.85,0,0,1-3.25,2.6,6,6,0,0,1-.79,0,2.77,2.77,0,0,1-1.52-.58l.05.54-2.36.22-.37-3.89,2.73-.24c.09.55.16,1,.69,1.27a1.37,1.37,0,0,0,.84.18,1.21,1.21,0,0,0,1.15-1.29,1,1,0,0,0-.25-.57,1.91,1.91,0,0,0-1.18-.58,8.2,8.2,0,0,1-2.94-1,3.47,3.47,0,0,1-1.57-2.53,3.73,3.73,0,0,1,3.46-4.09c.21,0,.53,0,.54,0a3.3,3.3,0,0,1,1.47.55l-.06-.56,2.21-.21Z"/><path class="cls-5" d="M196.87,223l-2.58.24a2.57,2.57,0,0,0-.25-.61,1.24,1.24,0,0,0-1.14-.49,1.09,1.09,0,0,0-1,1.19c.11.91,1.36,1.09,2.06,1.25a6.79,6.79,0,0,1,2.24.78,3.63,3.63,0,0,1,1.71,2.69,4,4,0,0,1-.19,1.6,3.81,3.81,0,0,1-3.24,2.6,6,6,0,0,1-.79,0,2.77,2.77,0,0,1-1.52-.58l.05.54-2.36.23-.37-3.9,2.73-.24c.09.55.16,1,.68,1.27a1.41,1.41,0,0,0,.85.19,1.22,1.22,0,0,0,1.15-1.29,1.1,1.1,0,0,0-.25-.58,1.86,1.86,0,0,0-1.19-.57,8.44,8.44,0,0,1-2.93-1,3.45,3.45,0,0,1-1.57-2.53,3.73,3.73,0,0,1,3.46-4.08c.21,0,.53,0,.54,0a3.3,3.3,0,0,1,1.47.55l-.06-.56,2.2-.21Z"/></g><polygon class="cls-5" points="208.37 222.29 205.44 222.57 205.32 221.33 203.26 221.53 203.44 223.43 206.27 223.16 206.54 226.01 203.71 226.28 203.91 228.39 205.99 228.2 205.85 226.76 208.77 226.49 209.17 230.64 199.82 231.53 199.58 229 200.78 228.89 200.09 221.65 198.89 221.77 198.65 219.27 208 218.38 208.37 222.29"/><polygon class="cls-5" points="211.74 227.86 211.05 220.56 209.86 220.67 209.62 218.21 215.01 217.69 215.24 220.14 214.14 220.25 214.83 227.48 217.05 227.27 216.87 225.43 219.68 225.16 220.1 229.59 210.79 230.47 210.55 227.97 211.74 227.86"/><g class="cls-2"><path class="cls-5" d="M228.56,220l-2.59.25a2.57,2.57,0,0,0-.25-.61,1.22,1.22,0,0,0-1.14-.49,1.07,1.07,0,0,0-1,1.19c.1.9,1.35,1.08,2,1.25a6.82,6.82,0,0,1,2.25.77,3.63,3.63,0,0,1,1.7,2.7,4.16,4.16,0,0,1-.18,1.6,3.83,3.83,0,0,1-3.25,2.6,6,6,0,0,1-.79,0,2.77,2.77,0,0,1-1.52-.58l.05.54-2.36.22-.37-3.89,2.73-.25c.09.56.16,1,.69,1.28a1.38,1.38,0,0,0,.84.18,1.2,1.2,0,0,0,1.15-1.29,1,1,0,0,0-.25-.57,1.91,1.91,0,0,0-1.18-.58,8.2,8.2,0,0,1-2.94-1,3.47,3.47,0,0,1-1.56-2.53,3.94,3.94,0,0,1,.53-2.33,3.9,3.9,0,0,1,2.92-1.76c.21,0,.53,0,.55,0a3.26,3.26,0,0,1,1.46.55l0-.56,2.2-.21Z"/><path class="cls-5" d="M207.38,119.63c-6.59-7.28-15.81-13.34-21.72-15.73,0,0-5.91-2.4,2.69-8.47,9.3-6.57,17.24-23.14,15.22-43.64Q200.78,23.64,177.8,9.37C162.47-.13,153.37-1.23,131.32,1L34,10.61C16.88,12.3-1.37,27.33.08,42.06L15.62,199.44c1.48,15,10.27,28.7,34.41,26.32l23.38-2.31s10.48-1,10.44-.37-.88,13.45-2,27.81c-1.15,15.19,6.82,16.5,17.73,2.91l28.52-35.75,22.05-2.18q35.46-3.5,53.5-21.88T219,148.15q-1.74-17.6-11.62-28.52"/></g><polygon class="cls-3" points="30.78 173.23 28.17 148.94 24.25 149.36 23.35 140.99 54.73 137.62 56.18 151.14 46.28 152.2 45.81 147.75 38.72 148.51 39.45 155.3 48.82 154.3 49.84 163.78 40.35 164.8 41.14 172.12 45 171.7 45.91 180.19 27.71 182.15 26.8 173.66 30.78 173.23"/><polygon class="cls-3" points="91.38 147 81.55 148.06 81.1 143.9 74.19 144.65 74.88 151.03 84.36 150.01 85.39 159.55 75.9 160.57 76.66 167.65 83.63 166.9 83.11 162.1 92.89 161.06 94.39 174.99 63.07 178.35 62.16 169.86 66.2 169.43 63.59 145.19 59.55 145.63 58.66 137.25 89.97 133.89 91.38 147"/><polygon class="cls-3" points="127.97 143.08 118.14 144.13 117.69 139.98 110.78 140.72 111.47 147.1 120.95 146.08 121.97 155.62 112.49 156.64 113.25 163.72 120.22 162.98 119.7 158.18 129.48 157.13 130.97 171.06 99.66 174.42 98.74 165.93 102.78 165.5 100.18 141.26 96.14 141.7 95.24 133.33 126.56 129.96 127.97 143.08"/><g class="cls-2"><path class="cls-3" d="M161.44,138.24l-8.66.93a9,9,0,0,0-.87-2,4.14,4.14,0,0,0-3.85-1.6,3.64,3.64,0,0,0-3.41,4c.38,3,4.59,3.59,6.95,4.11a23.22,23.22,0,0,1,7.56,2.5,12.19,12.19,0,0,1,5.81,9,13.47,13.47,0,0,1-.54,5.39,12.83,12.83,0,0,1-10.78,8.85,19.61,19.61,0,0,1-2.66.05,9.25,9.25,0,0,1-5.11-1.88l.19,1.82-7.9.85-1.4-13.06,9.14-.92c.31,1.86.58,3.25,2.35,4.25a4.64,4.64,0,0,0,2.84.58,4,4,0,0,0,3.8-4.37,3.49,3.49,0,0,0-.86-1.92c-.81-.92-1.75-1.41-4-1.88-3.52-.81-6.84-1.34-9.9-3.38a11.69,11.69,0,0,1-5.35-8.43,12.5,12.5,0,0,1,11.43-13.84c.7-.07,1.77-.07,1.83-.08A11.09,11.09,0,0,1,153,129l-.2-1.87,7.38-.79Z"/></g><polygon class="cls-3" points="197.86 122.25 199.37 136.36 191.41 137.21 190.87 132.12 186.71 132.57 189.25 156.28 193.29 155.84 194.2 164.27 175.99 166.23 175.09 157.8 179.19 157.36 176.64 133.65 172.48 134.09 173.04 139.25 165.08 140.1 163.56 125.93 197.86 122.25"/><g class="cls-2"><path class="cls-3" d="M36.74,116.56l-5.21.56A4.85,4.85,0,0,0,31,115.9a2.43,2.43,0,0,0-2.3-1,2.17,2.17,0,0,0-2.05,2.42c.23,1.82,2.75,2.16,4.17,2.47a13.74,13.74,0,0,1,4.53,1.5,7.3,7.3,0,0,1,3.5,5.38,8.34,8.34,0,0,1-.33,3.24,7.71,7.71,0,0,1-6.47,5.31,13.83,13.83,0,0,1-1.6,0,5.58,5.58,0,0,1-3.07-1.13l.12,1.09-4.74.51-.84-7.83,5.48-.56c.19,1.12.35,2,1.41,2.55a2.77,2.77,0,0,0,1.71.35,2.43,2.43,0,0,0,2.28-2.62,2.11,2.11,0,0,0-.52-1.16,3.85,3.85,0,0,0-2.39-1.13c-2.12-.48-4.11-.8-5.94-2a7,7,0,0,1-3.21-5.06A7.49,7.49,0,0,1,27.6,110c.43,0,1.07,0,1.1,0a6.61,6.61,0,0,1,3,1.06l-.12-1.12,4.43-.48Z"/></g><polygon class="cls-3" points="58.59 106.97 59.5 115.43 54.73 115.95 54.4 112.89 51.9 113.16 53.43 127.39 55.85 127.13 56.4 132.19 45.47 133.36 44.93 128.3 47.39 128.04 45.86 113.81 43.37 114.07 43.7 117.17 38.92 117.68 38 109.18 58.59 106.97"/><g class="cls-2"><path class="cls-3" d="M70.55,118.3l1.93-.21,1.15-.23a3.4,3.4,0,0,0,2.49-2,4.08,4.08,0,0,0,.31-2.06,3.2,3.2,0,0,0-.73-1.77c-1-1.25-2.15-1.23-3.68-1.17l-2.24.24Zm-5.24,7.81-1.58-14.72-2.32.25-.53-4.92,10.47-1.12c.78,0,1.55-.1,2.33-.11,2.67,0,4.9.61,6.7,2.76a8.25,8.25,0,0,1,2,4.7,7.83,7.83,0,0,1-2.09,6.65,7.6,7.6,0,0,1-2.2,1.38l3.46,3.43,2.56-.28.54,5-6.57.7c-2.41-2.9-4.78-5.77-7.14-8.54l.45,4.14,1.48-.15.54,5.06-9.84,1L63,126.36Z"/></g><polygon class="cls-3" points="89.38 123.53 87.81 108.95 85.49 109.2 84.95 104.14 95.88 102.96 96.42 108.02 94.03 108.28 95.59 122.86 97.91 122.61 98.46 127.67 87.56 128.84 87.02 123.78 89.38 123.53"/><g class="cls-2"><path class="cls-3" d="M109.26,113l2.21-.24a4.25,4.25,0,0,0,1.32-.31,3,3,0,0,0,1.66-3,2.74,2.74,0,0,0-.62-1.49c-.91-1.15-2-1.11-3.35-1l-1.86.2ZM104.1,122l-1.58-14.69-2.39.26-.53-5,9.91-1.07a16.81,16.81,0,0,1,4.33,0,7.09,7.09,0,0,1,4.89,2.82,8.67,8.67,0,0,1,1.75,4.39,8.36,8.36,0,0,1-4.59,8.6,11.38,11.38,0,0,1-3.74.9l-2.32.25.31,2.84,2.32-.24.54,5.06-10.79,1.15-.54-5Z"/><path class="cls-3" d="M26.85,100.58l2.89-.31a7.43,7.43,0,0,0,2.13-.54c2.17-1,2.88-3.51,2.63-5.89-.37-3.37-2.34-4.79-3.61-5.18a8.84,8.84,0,0,0-3-.26l-2.35.25Zm-5.37,1L20.12,88.93l-2,.22-.48-4.41,9.46-1,2-.15a10.18,10.18,0,0,1,7.25,2.23,10.51,10.51,0,0,1,3.66,7.36,11.67,11.67,0,0,1-.1,3.37,10,10,0,0,1-5.08,7.32,11.46,11.46,0,0,1-4.31,1.2l-10.55,1.14-.48-4.41Z"/></g><polygon class="cls-3" points="57.9 87.38 52.79 87.93 52.55 85.77 48.96 86.16 49.32 89.47 54.25 88.94 54.79 93.9 49.86 94.43 50.25 98.11 53.88 97.72 53.61 95.23 58.69 94.68 59.47 101.92 43.19 103.68 42.72 99.27 44.81 99.04 43.45 86.44 41.36 86.67 40.89 82.32 57.16 80.56 57.9 87.38"/><polygon class="cls-3" points="70.83 96.26 69.46 83.54 67.39 83.77 66.93 79.48 76.3 78.47 76.76 82.72 74.84 82.93 76.2 95.53 80.06 95.11 79.72 91.92 84.62 91.39 85.45 99.08 69.23 100.83 68.76 96.48 70.83 96.26"/><g class="cls-2"><path class="cls-3" d="M94.8,88.17l3.74-.41-2.4-5.43Zm-6.08,6.19L92,81.11l-1.76.19L89.78,77l8.42-.91c1.07,2.16,2.17,4.35,3.2,6.52,1.59,3.31,3.08,6.59,4.58,9.91l2.4-.26.47,4.38-9.12,1-.43-4,1.64-.18-.79-1.91L94,92.25l-.44,2L95.86,94l.42,4-9.37,1-.47-4.35Z"/></g><polygon class="cls-3" points="18.49 73.8 16.92 59.22 14.56 59.48 14.02 54.45 32.85 52.42 33.73 60.54 27.79 61.18 27.5 58.51 23.25 58.97 23.69 63.04 29.31 62.43 29.93 68.13 24.24 68.74 24.71 73.13 27.03 72.88 27.58 77.98 16.65 79.16 16.1 74.06 18.49 73.8"/><g class="cls-2"><path class="cls-3" d="M50.41,48.46l-5.55.6-2.15-2.47-1.5,2.9-5.62.61c.58-.85,1.17-1.69,1.71-2.57.71-1.07,1.33-2.17,2-3.27l6.28-.68Zm3,9.74-5.9.64-.27-2.5-4.14.45.41,3.83L49.17,60l.62,5.72-5.69.62.46,4.25,4.18-.45-.31-2.88,5.86-.64L55.2,75,36.4,77l-.55-5.09,2.42-.26L36.7,57.12l-2.42.26-.54-5,18.79-2Z"/></g><polygon class="cls-3" points="74.81 47.89 75.72 56.36 70.94 56.87 70.61 53.82 68.12 54.09 69.65 68.32 72.08 68.06 72.62 73.11 61.7 74.29 61.15 69.23 63.61 68.97 62.07 54.74 59.58 55.01 59.91 58.1 55.13 58.62 54.22 50.12 74.81 47.89"/><polygon class="cls-3" points="96.56 53.54 90.66 54.18 90.39 51.68 86.25 52.13 86.66 55.96 92.35 55.34 92.97 61.07 87.28 61.69 87.74 65.94 91.92 65.49 91.61 62.6 97.47 61.97 98.38 70.33 79.58 72.36 79.03 67.27 81.45 67.01 79.88 52.46 77.46 52.72 76.92 47.7 95.71 45.67 96.56 53.54"/><g class="cls-2"><path class="cls-3" d="M127.68,85.7l3.92-.41c3.15-.45,4.16-1,5-2.36a4.21,4.21,0,0,0-.27-4.83c-1.42-1.69-3.07-1.63-5.19-1.47l-4.39.47ZM126,69.13l3.86-.41c1.7-.18,3-.38,3.89-1.89a3.4,3.4,0,0,0,.49-2.12A3.6,3.6,0,0,0,133,62.35c-1-.89-2.34-.88-3.81-.78l-3.92.41Zm-8.34,18.05-2.56-24.3-3.87.4L110.35,55l18.91-2c4.52-.42,9.22-.68,12.36,3.25a11.22,11.22,0,0,1,2.25,5.57,10.17,10.17,0,0,1-2.07,7.32A13.73,13.73,0,0,1,139.63,71a17.6,17.6,0,0,1,2.73,1.19,10.7,10.7,0,0,1,4.95,8.18,12.65,12.65,0,0,1-3.54,10.26c-2.92,2.67-7.25,3.13-11.11,3.6l-18,1.89-.9-8.55Z"/><path class="cls-3" d="M165,81.41l5.56-.58a13.93,13.93,0,0,0,4.1-1c4.17-2,5.56-6.74,5.08-11.31-.68-6.5-4.47-9.23-6.91-10-1.35-.45-2.72-.54-5.74-.52l-4.51.47Zm-10.34,1.86L152.1,59l-3.93.42-.89-8.49L165.49,49c1.23-.07,2.52-.21,3.76-.28,5.25-.2,9.93,1,13.95,4.33,2.54,2.16,6.16,6.22,7,14.18a23,23,0,0,1-.2,6.48,19.25,19.25,0,0,1-9.83,14.06c-2.12,1.17-3.74,1.58-8.28,2.29l-20.32,2.14-.89-8.49Z"/></g></g></g></svg>