<svg xmlns="http://www.w3.org/2000/svg" viewBox="0 0 594.65 699.27"><defs><style>.cls-1,.cls-3{fill:#fff;}.cls-1{stroke:#95c11f;stroke-miterlimit:10;stroke-width:7px;}.cls-2{fill:#95c11f;}</style></defs><g id="Calque_2" data-name="Calque 2"><g id="Calque_1-2" data-name="Calque 1"><path class="cls-1" d="M575.27,505.42c-8.74-9.66-20.95-17.69-28.79-20.85,0,0-7.85-3.19,3.56-11.24,12.33-8.71,22.86-30.68,20.18-57.86q-3.69-37.34-34.17-56.24c-20.32-12.61-32.39-14.06-61.63-11.17l-129,12.8c-22.75,2.25-46.95,22.18-45,41.71L321,611.25c2,19.83,13.63,38,45.64,34.88l31-3.06s13.9-1.37,13.84-.48-1.16,17.83-2.61,36.87c-1.53,20.14,9.05,21.87,23.5,3.85l37.83-47.4L499.43,633q47-4.63,70.93-29t20.32-60.77Q588.37,519.92,575.27,505.42Z"/><path class="cls-2" d="M367,578l-5.55.53a10.17,10.17,0,0,0-1.12-1.28,5,5,0,0,0-4.15-1.43,5.82,5.82,0,0,0-2.07.6,6.19,6.19,0,0,0-3.24,6.22,7,7,0,0,0,.69,2.35,6,6,0,0,0,5.89,3.34,4.71,4.71,0,0,0,3-1.44,5,5,0,0,0,.86-1,8.82,8.82,0,0,0,.61-1.28l6.21-.6c-.05.5-.14,1-.22,1.51a9,9,0,0,1-2,3.88,12.08,12.08,0,0,1-1.52,1.74,11.8,11.8,0,0,1-6.7,2.83,11.28,11.28,0,0,1-7.51-1.9,12.45,12.45,0,0,1-3-17.22,11.13,11.13,0,0,1,8.14-4.63,11.94,11.94,0,0,1,3.13.13,8.27,8.27,0,0,1,3.2,1.55l-.18-1.91,4.73-.45Z"/><path class="cls-2" d="M371.84,572.62a12.32,12.32,0,0,1,8.67-5,12,12,0,0,1,13.05,10.81,12.41,12.41,0,0,1-1.93,7.81,11.91,11.91,0,0,1-8.83,5.4,12.08,12.08,0,0,1-11-19Zm4.25,9.64a6.2,6.2,0,0,0,6.18,3.55,5.34,5.34,0,0,0,2.41-.8,6.27,6.27,0,0,0,3.1-6A6.17,6.17,0,0,0,381,573.4a6.18,6.18,0,0,0-3.9,1.93,6.78,6.78,0,0,0-1.68,4.61A5.89,5.89,0,0,0,376.09,582.26Z"/><path class="cls-2" d="M399.19,584.84l-1.33-13.7-2.33.23-.45-4.67,9.9-.92q3,7,6.25,14.29l3.3-15.25,9.89-1,.45,4.63-2.2.22L424,582.45l2.21-.21.46,4.79L417,588l-.46-4.74,2.1-.2-1-10.74L414,588.23l-4.11.39-6.52-14.72,1,10.45,2.14-.21.46,4.76-9.63.93-.46-4.76Z"/><path class="cls-2" d="M431.81,581.73l-1.31-13.64-2.17.21-.46-4.73,10.22-1,.46,4.73-2.24.21,1.32,13.64,2.17-.21.45,4.73-10.18,1-.46-4.73Z"/><path class="cls-2" d="M463.55,568.65l-5.56.54a11.43,11.43,0,0,0-1.11-1.29,5,5,0,0,0-4.15-1.42,5.61,5.61,0,0,0-2.07.6,6.19,6.19,0,0,0-3.25,6.21,6.78,6.78,0,0,0,.7,2.36A6,6,0,0,0,454,579a4.77,4.77,0,0,0,3-1.45,5,5,0,0,0,.86-1,8.82,8.82,0,0,0,.61-1.28l6.21-.6c-.05.5-.14,1-.22,1.51a8.89,8.89,0,0,1-2,3.87,10.65,10.65,0,0,1-1.53,1.74,11.69,11.69,0,0,1-6.69,2.84,11.27,11.27,0,0,1-7.51-1.9,12.45,12.45,0,0,1-3-17.22,11.13,11.13,0,0,1,8.14-4.63A11.5,11.5,0,0,1,455,561a8.12,8.12,0,0,1,3.2,1.55l-.18-1.91,4.73-.45Z"/><path class="cls-2" d="M490.22,564.32l-4.86.47a4.93,4.93,0,0,0-.48-1.15,2.32,2.32,0,0,0-2.14-.92A2,2,0,0,0,480.8,565c.2,1.7,2.55,2,3.87,2.34a13,13,0,0,1,4.22,1.45,6.85,6.85,0,0,1,3.21,5.06,7.49,7.49,0,0,1-.34,3,7.19,7.19,0,0,1-6.09,4.9,11.36,11.36,0,0,1-1.5,0,5.22,5.22,0,0,1-2.85-1.08l.1,1-4.44.43-.71-7.33,5.13-.46a2.8,2.8,0,0,0,1.29,2.39,2.66,2.66,0,0,0,1.6.35,2.27,2.27,0,0,0,2.15-2.43,1.89,1.89,0,0,0-.47-1.08,3.48,3.48,0,0,0-2.23-1.08,15.78,15.78,0,0,1-5.52-2,6.54,6.54,0,0,1-3-4.76,7,7,0,0,1,6.49-7.68c.39,0,1,0,1,0a6.18,6.18,0,0,1,2.75,1l-.1-1.05,4.14-.4Z"/><path class="cls-2" d="M510.73,555.58l.77,7.92-4.47.43-.28-2.86-2.33.23,1.28,13.3,2.27-.22.46,4.74-10.22,1-.46-4.73,2.3-.22-1.28-13.31-2.34.23.28,2.89-4.47.43-.76-7.95Z"/><path class="cls-2" d="M516.81,573.53l-1.33-13.77-2.17.21-.44-4.6,9.79-.94c.72,0,1.45-.07,2.18-.08,2.49,0,4.57.62,6.22,2.65a7.65,7.65,0,0,1,1.79,4.4,7.32,7.32,0,0,1-2,6.2,6.93,6.93,0,0,1-2.07,1.26l3.2,3.24,2.39-.23.46,4.7-6.15.59c-2.22-2.73-4.4-5.44-6.58-8l.38,3.88,1.38-.14.45,4.74-9.2.88-.45-4.73Zm5-7.24,1.8-.18,1.08-.2a3.19,3.19,0,0,0,2.35-1.82,3.77,3.77,0,0,0,.31-1.92,3.15,3.15,0,0,0-.66-1.66c-.91-1.17-2-1.17-3.43-1.13l-2.1.2Z"/><path class="cls-2" d="M539.31,571.36,538,557.73l-2.17.2-.46-4.73,10.22-1L546,557l-2.23.21,1.31,13.64,2.17-.21.46,4.73-10.18,1-.46-4.74Z"/><path class="cls-2" d="M553.08,570l-1.33-13.73-2.23.21-.45-4.66,9.26-.89a15.12,15.12,0,0,1,4,0,6.58,6.58,0,0,1,4.54,2.68,8.07,8.07,0,0,1,1.59,4.12,7.82,7.82,0,0,1-4.37,8,10.5,10.5,0,0,1-3.5.8l-2.17.21.25,2.67,2.17-.21.46,4.73-10.09,1-.45-4.7Zm4.9-8.26,2.07-.2a3.88,3.88,0,0,0,1.24-.29,2.77,2.77,0,0,0,1.58-2.8,2.56,2.56,0,0,0-.56-1.41c-.84-1.08-1.83-1.05-3.12-1l-1.74.17Z"/><path class="cls-2" d="M350.33,618.42,349,604.78l-2.21.22-.45-4.7L364,598.6l.74,7.59-5.56.54-.24-2.5-4,.38.37,3.81,5.26-.5.51,5.32-5.32.51.4,4.11,2.16-.21.46,4.76-10.21,1-.46-4.76Z"/><path class="cls-2" d="M384.46,604.09l-5.52.53-.22-2.34-3.88.38.35,3.58,5.32-.51.52,5.35-5.33.52.39,4,3.91-.38-.26-2.69,5.48-.53.76,7.82-17.58,1.7-.46-4.77,2.27-.22-1.31-13.6-2.27.22-.45-4.7,17.57-1.7Z"/><path class="cls-2" d="M403.25,601.58l-4.86.47a4.88,4.88,0,0,0-.47-1.15,2.3,2.3,0,0,0-2.15-.92,2,2,0,0,0-1.94,2.24c.2,1.71,2.55,2,3.88,2.35a12.81,12.81,0,0,1,4.22,1.45,6.8,6.8,0,0,1,3.2,5.06,7.51,7.51,0,0,1-.34,3A7.18,7.18,0,0,1,398.7,619a10.74,10.74,0,0,1-1.49,0,5.29,5.29,0,0,1-2.86-1.09l.1,1-4.44.43-.7-7.33,5.13-.46a2.77,2.77,0,0,0,1.29,2.4,2.68,2.68,0,0,0,1.59.34,2.27,2.27,0,0,0,2.15-2.43,1.89,1.89,0,0,0-.47-1.08,3.55,3.55,0,0,0-2.22-1.08,15.62,15.62,0,0,1-5.53-2A6.59,6.59,0,0,1,388.3,603a7,7,0,0,1,6.49-7.69c.4,0,1,0,1,0a6.14,6.14,0,0,1,2.75,1l-.1-1.05,4.14-.4Z"/><path class="cls-2" d="M423.77,592.83l.76,7.92-4.47.43-.27-2.86-2.34.23,1.29,13.31,2.26-.22.46,4.73-10.22,1-.45-4.73,2.3-.22-1.29-13.31-2.33.23.28,2.89-4.47.43-.77-7.95Z"/><path class="cls-2" d="M429.74,610.8l-1.31-13.64-2.17.21-.46-4.73,10.22-1,.46,4.73-2.24.22,1.32,13.63,2.17-.21.45,4.74-10.18,1-.46-4.73Z"/><path class="cls-2" d="M447.26,590.6l.44,4.57-1.71.16,4.14,11.24c.4-2.32.81-4.68,1.25-7,.3-1.66.65-3.25,1-4.87l-1.88.18-.44-4.64,9.79-.94.44,4.63-2.26.22-4.4,19.1-6.17.59L440.05,596l-2.2.21-.45-4.63Z"/><path class="cls-2" d="M462.17,607.7l3.7-14.25-1.9.18-.45-4.63,9.1-.88c1.12,2.35,2.28,4.72,3.37,7.07,1.67,3.59,3.24,7.15,4.81,10.75l2.6-.25.46,4.73-9.86,1-.41-4.27,1.77-.18-.83-2.07-6.64.64-.49,2.14,2.47-.24.41,4.27-10.12,1-.45-4.7Zm6.63-6.61,4-.39-2.53-5.89Z"/><path class="cls-2" d="M487.33,605.24,486,591.51l-2.24.21-.44-4.63,10.12-1,.44,4.6-2.07.2,1.31,13.61,4.18-.41-.34-3.45,5.29-.51.81,8.31-17.52,1.69-.45-4.69Z"/><path class="cls-2" d="M345.38,557.89l-1.64-17.27-2.75.26-.56-5.91,13.44-1.28c3.21-.26,6.56-.41,8.76,2.4a8,8,0,0,1,1.55,4,7.16,7.16,0,0,1-1.52,5.18,9.15,9.15,0,0,1-1.56,1.33,12.07,12.07,0,0,1,1.93.87,7.57,7.57,0,0,1,3.46,5.84,9,9,0,0,1-2.59,7.26c-2.09,1.88-5.17,2.17-7.91,2.48l-12.78,1.21-.58-6.08Zm6.05-12.75,2.75-.27c1.21-.11,2.16-.24,2.77-1.31a2.34,2.34,0,0,0,.36-1.5,2.48,2.48,0,0,0-.87-1.68,3.53,3.53,0,0,0-2.7-.59l-2.79.27Zm1.08,11.78,2.79-.26c2.24-.3,3-.66,3.58-1.65a2.84,2.84,0,0,0,.45-1.89,2.91,2.91,0,0,0-.61-1.54c-1-1.2-2.17-1.18-3.67-1.08l-3.12.3Z"/><path class="cls-2" d="M373.36,555.27l-1.66-17.44-2.75.26-.55-5.82,12.4-1.18c.92-.05,1.84-.1,2.77-.1,3.15,0,5.78.79,7.88,3.37a9.78,9.78,0,0,1,2.25,5.58,9.29,9.29,0,0,1-2.57,7.85,9,9,0,0,1-2.62,1.59l4,4.11,3-.29.57,5.95-7.79.74c-2.8-3.47-5.57-6.9-8.32-10.21l.47,4.91,1.75-.16.57,6-11.66,1.11-.57-6Zm6.31-9.17,2.29-.21,1.36-.26a4,4,0,0,0,3-2.3,4.67,4.67,0,0,0,.4-2.43,3.79,3.79,0,0,0-.83-2.11c-1.15-1.48-2.53-1.48-4.33-1.43l-2.67.25Z"/><path class="cls-2" d="M407.11,528.54l.56,5.87-2,.19,1.13,11.82a9.84,9.84,0,0,0,.15,1.2c.61,3.3,2.43,3.89,4,3.74a3.6,3.6,0,0,0,2.26-1c1.42-1.4,1.29-3.19,1.16-5l-1.09-11.48-2.21.21-.56-5.87,12-1.14L423,533l-2.71.26,1.15,12.11c.06.62.12,1.25.14,1.83a10.07,10.07,0,0,1-2.73,7.61,11.08,11.08,0,0,1-7.6,3.54,10.42,10.42,0,0,1-8.3-2.53,8.55,8.55,0,0,1-2.05-3,17.29,17.29,0,0,1-1.05-4.85l-1.2-12.61-2.75.26-.56-5.87Z"/><path class="cls-2" d="M445.55,533.49l-6.16.59a6.07,6.07,0,0,0-.6-1.46,2.94,2.94,0,0,0-2.71-1.17,2.59,2.59,0,0,0-2.46,2.84c.24,2.16,3.22,2.59,4.9,3a16.44,16.44,0,0,1,5.34,1.84,8.67,8.67,0,0,1,4.06,6.42,9.52,9.52,0,0,1-.44,3.82,9.12,9.12,0,0,1-7.73,6.2,15.39,15.39,0,0,1-1.88,0,6.61,6.61,0,0,1-3.62-1.38l.12,1.29-5.62.54-.88-9.28,6.5-.58c.21,1.32.38,2.32,1.63,3a3.38,3.38,0,0,0,2,.44,2.89,2.89,0,0,0,2.74-3.08,2.46,2.46,0,0,0-.6-1.37,4.48,4.48,0,0,0-2.82-1.37c-2.49-.6-4.84-1-7-2.48a8.32,8.32,0,0,1-3.73-6,8.87,8.87,0,0,1,8.23-9.73c.5-.05,1.26,0,1.3,0a7.89,7.89,0,0,1,3.49,1.3l-.13-1.33,5.24-.5Z"/><path class="cls-2" d="M469,531.26l-6.16.59a6.53,6.53,0,0,0-.6-1.46,3,3,0,0,0-2.72-1.17,2.59,2.59,0,0,0-2.46,2.84c.25,2.16,3.23,2.59,4.91,3a16.44,16.44,0,0,1,5.34,1.84,8.66,8.66,0,0,1,4.05,6.42,9.46,9.46,0,0,1-.43,3.82,9.12,9.12,0,0,1-7.73,6.2,15.53,15.53,0,0,1-1.89,0,6.58,6.58,0,0,1-3.61-1.38l.12,1.29-5.62.54-.89-9.28,6.5-.58c.21,1.32.39,2.32,1.64,3a3.37,3.37,0,0,0,2,.44,2.88,2.88,0,0,0,2.73-3.08,2.35,2.35,0,0,0-.59-1.37,4.51,4.51,0,0,0-2.82-1.37c-2.49-.6-4.84-1-7-2.48a8.31,8.31,0,0,1-3.72-6,8.86,8.86,0,0,1,8.23-9.73c.5-.05,1.26,0,1.3,0a7.85,7.85,0,0,1,3.48,1.3l-.12-1.33,5.24-.5Z"/><path class="cls-2" d="M496.38,529.54l-7,.66-.28-3-4.92.47.44,4.53,6.74-.64.65,6.79-6.75.64.48,5,4.95-.48-.32-3.41,6.95-.66.94,9.91L476,551.55l-.57-6,2.87-.27L476.66,528l-2.87.28-.57-6,22.27-2.12Z"/><path class="cls-2" d="M504.41,542.8l-1.66-17.4-2.83.27-.56-5.86,12.82-1.23.56,5.83-2.63.25,1.64,17.23,5.29-.5-.41-4.37,6.7-.64,1,10.54L502.14,549l-.56-6Z"/><path class="cls-2" d="M544.46,524.08l-6.16.59a6.07,6.07,0,0,0-.6-1.46A2.94,2.94,0,0,0,535,522a2.59,2.59,0,0,0-2.46,2.84c.24,2.16,3.22,2.59,4.9,3a16.36,16.36,0,0,1,5.34,1.84,8.7,8.7,0,0,1,4.06,6.42,9.72,9.72,0,0,1-.44,3.82,9.12,9.12,0,0,1-7.73,6.2,15.53,15.53,0,0,1-1.89,0,6.61,6.61,0,0,1-3.61-1.38l.12,1.29-5.62.54-.88-9.28,6.5-.58c.21,1.32.38,2.31,1.63,3a3.3,3.3,0,0,0,2,.43,2.88,2.88,0,0,0,2.74-3.07,2.46,2.46,0,0,0-.6-1.37,4.48,4.48,0,0,0-2.82-1.37c-2.49-.6-4.84-1-7-2.49a8.24,8.24,0,0,1-3.73-6,8.86,8.86,0,0,1,8.23-9.72c.5,0,1.26,0,1.3,0a7.77,7.77,0,0,1,3.49,1.3l-.13-1.33,5.24-.5Z"/><path class="cls-2" d="M494,285c-15.7-17.35-37.65-31.77-51.73-37.47,0,0-14.09-5.71,6.4-20.19,22.16-15.64,41.08-55.11,36.26-103.94q-6.63-67.09-61.4-101.06C387-.32,365.35-2.93,312.83,2.25l-231.75,23C40.2,29.3-3.27,65.11.19,100.19l37,374.92c3.52,35.64,24.47,68.36,82,62.68l55.69-5.5s25-2.46,24.86-.87-2.09,32-4.68,66.24c-2.75,36.19,16.24,39.3,42.22,6.93l68-85.17,52.52-5.18q84.48-8.34,127.44-52.13T521.7,352.93Q517.56,311,494,285Z"/><path class="cls-3" d="M73.32,412.66l-6.21-57.87-9.35,1-2.14-19.94,74.75-8L133.83,360l-23.57,2.53L109.12,352l-16.87,1.81L94,370l22.32-2.4,2.42,22.6-22.59,2.42L98,410l9.21-1,2.17,20.22L66,433.9l-2.17-20.22Z"/><path class="cls-3" d="M217.69,350.19l-23.43,2.52-1.06-9.91-16.46,1.77,1.63,15.2,22.6-2.42,2.44,22.73-22.6,2.42,1.82,16.88,16.59-1.79L198,386.16l23.29-2.5,3.57,33.19-74.61,8-2.17-20.22,9.62-1-6.2-57.74-9.62,1L139.73,327l74.61-8Z"/><path class="cls-3" d="M304.85,340.83l-23.43,2.52-1.06-9.9-16.46,1.76,1.63,15.2L288.12,348l2.45,22.73L268,373.15,269.78,390l16.6-1.78-1.23-11.44,23.29-2.5L312,407.49l-74.61,8-2.17-20.22,9.62-1-6.2-57.74-9.62,1-2.14-19.94,74.61-8Z"/><path class="cls-3" d="M384.58,329.31l-20.64,2.22a20.44,20.44,0,0,0-2.07-4.86,9.8,9.8,0,0,0-9.16-3.81c-5,.54-8.69,4.46-8.13,9.62.92,7.23,10.93,8.56,16.56,9.79,6.2,1.17,12.57,2.74,18,6,3.63,2.3,12.51,8.82,13.86,21.37a32.08,32.08,0,0,1-1.31,12.83A30.59,30.59,0,0,1,366,403.53a48.7,48.7,0,0,1-6.34.11c-5.4-.4-7.5-1.59-12.18-4.47l.46,4.32-18.83,2-3.34-31.1,21.77-2.19c.76,4.43,1.4,7.75,5.6,10.12a11.26,11.26,0,0,0,6.78,1.39c5.3-.57,9.64-4.85,9-10.43a8.19,8.19,0,0,0-2-4.57c-1.93-2.19-4.17-3.36-9.51-4.48-8.39-1.92-16.28-3.19-23.58-8.05-3.35-2.32-11.47-8.36-12.73-20.08a31.06,31.06,0,0,1,4.06-18.63c6.83-11.31,18.41-13.82,23.15-14.33,1.67-.18,4.21-.17,4.35-.19,4.7.34,7.69,2,11.75,4.24l-.48-4.46,17.57-1.89Z"/><path class="cls-3" d="M471.34,291.22l3.6,33.61-19,2-1.3-12.14-9.9,1.07,6.06,56.48,9.62-1,2.16,20.08L419.25,396l-2.16-20.08,9.76-1-6.06-56.48-9.9,1.07,1.31,12.27-19,2L389.62,300Z"/><path class="cls-3" d="M87.51,277.67,75.12,279a12.37,12.37,0,0,0-1.24-2.91,5.9,5.9,0,0,0-5.5-2.29,5.2,5.2,0,0,0-4.88,5.77c.55,4.35,6.56,5.14,9.94,5.88A32.82,32.82,0,0,1,84.24,289a17.42,17.42,0,0,1,8.32,12.82,19.24,19.24,0,0,1-.78,7.71,18.39,18.39,0,0,1-15.4,12.66,30.69,30.69,0,0,1-3.81.07c-3.24-.25-4.5-1-7.31-2.69l.28,2.6-11.3,1.21-2-18.67,13.07-1.31c.45,2.66.84,4.65,3.36,6.07a6.67,6.67,0,0,0,4.07.83,5.78,5.78,0,0,0,5.42-6.25,4.93,4.93,0,0,0-1.22-2.75c-1.16-1.31-2.51-2-5.71-2.69-5-1.15-9.77-1.91-14.15-4.83a16.68,16.68,0,0,1-7.64-12.05A17.87,17.87,0,0,1,65.76,262c1-.1,2.53-.1,2.61-.11,2.82.21,4.62,1.2,7,2.55l-.29-2.68,10.55-1.13Z"/><path class="cls-3" d="M139.58,254.81,141.75,275l-11.39,1.22-.78-7.28-5.94.64,3.64,33.9,5.78-.62,1.29,12.05-26,2.8L107,305.63l5.86-.62-3.64-33.9-5.94.63.79,7.37-11.38,1.22-2.18-20.25Z"/><path class="cls-3" d="M155.57,300.42l-3.76-35.07-5.53.59L145,254.23,170,251.55c1.85-.12,3.7-.23,5.56-.26,6.35,0,11.67,1.46,15.95,6.59a19.63,19.63,0,0,1,4.67,11.18c.88,8.2-2.45,13.47-5,15.86a17.94,17.94,0,0,1-5.23,3.27l8.24,8.17,6.11-.65,1.28,12-15.65,1.68c-5.74-6.92-11.38-13.77-17-20.36l1.06,9.88,3.52-.38,1.29,12.05-23.44,2.52L150.05,301Zm12.48-18.61,4.61-.49,2.73-.55a8.09,8.09,0,0,0,5.93-4.7,9.44,9.44,0,0,0,.74-4.91,7.66,7.66,0,0,0-1.72-4.21c-2.35-3-5.14-2.93-8.76-2.79l-5.36.58Z"/><path class="cls-3" d="M212.91,294.27l-3.73-34.74-5.52.59-1.3-12.05,26-2.79,1.3,12-5.69.61,3.73,34.74,5.52-.6,1.29,12.06-25.94,2.78-1.3-12.05Z"/><path class="cls-3" d="M248,290.5l-3.76-35-5.69.61-1.27-11.89,23.6-2.53c5.38-.41,7.57-.48,10.33,0a16.84,16.84,0,0,1,11.64,6.71A20.49,20.49,0,0,1,287,258.88c.92,8.54-3.26,16.95-10.92,20.48-3,1.42-5.66,1.71-8.91,2.14l-5.53.59.73,6.78,5.52-.59,1.3,12.05-25.7,2.76-1.29-12Zm12.29-21.21,5.27-.57a9.84,9.84,0,0,0,3.14-.76,7.08,7.08,0,0,0,4-7.2,6.55,6.55,0,0,0-1.48-3.56c-2.16-2.74-4.69-2.63-8-2.45l-4.43.47Z"/><path class="cls-3" d="M51.17,241.93l-3.25-30.08-4.85.52-1.14-10.5,22.54-2.44c1.53-.09,3.12-.26,4.65-.35,6.5-.26,12.3,1.16,17.29,5.32,3.15,2.66,7.65,7.68,8.72,17.53a28.51,28.51,0,0,1-.24,8,23.83,23.83,0,0,1-12.12,17.44c-2.63,1.45-4.63,2-10.25,2.86L47.37,253l-1.13-10.51ZM64,239.59l6.88-.74a17.33,17.33,0,0,0,5.07-1.28c5.16-2.46,6.87-8.37,6.26-14-.87-8-5.56-11.42-8.59-12.34-1.68-.56-3.37-.67-7.11-.63l-5.58.6Z"/><path class="cls-3" d="M137.92,208.15l-12.17,1.31-.56-5.14-8.55.92.85,7.9,11.74-1.27,1.28,11.82L118.77,225l.94,8.77,8.63-.93-.64-5.94,12.1-1.31,1.86,17.25L102.89,247l-1.14-10.51,5-.54-3.24-30-5,.54L97.4,196.1l38.77-4.19Z"/><path class="cls-3" d="M168.74,229.31,165.47,199l-4.93.53-1.11-10.22,22.33-2.41,1.09,10.15-4.56.49,3.23,30,9.21-1-.82-7.61,11.67-1.26,2,18.34-38.62,4.17-1.12-10.37Z"/><path class="cls-3" d="M211.36,224.78l7.81-31.56-4.2.45-1.11-10.22,20.08-2.16c2.53,5.15,5.15,10.37,7.61,15.53,3.79,7.87,7.34,15.7,10.91,23.6l5.72-.62,1.13,10.44-21.74,2.35-1-9.43,3.91-.42-1.88-4.56-14.64,1.58-1,4.73,5.44-.59,1,9.42L207,235.73l-1.12-10.36ZM225.82,210l8.92-1L229,196.12Z"/><path class="cls-3" d="M44.05,175.81,40.3,141.08l-5.61.6-1.29-12,44.86-4.85,2.09,19.34-14.14,1.52-.69-6.36-10.13,1.1,1,9.71,13.39-1.45,1.47,13.56-13.56,1.46,1.12,10.46,5.53-.59,1.31,12.13-26,2.81-1.31-12.13Z"/><path class="cls-3" d="M127.17,138.65l-14.06,1.51-.65-5.94-9.87,1.07,1,9.12L117.13,143l1.47,13.64-13.55,1.46,1.09,10.13,10-1.08-.74-6.86,14-1.51,2.15,19.92-44.78,4.84L85.4,171.35l5.77-.62-3.74-34.65-5.77.62-1.29-12,44.77-4.83Zm-7.08-23.2-13.22,1.42L101.74,111l-3.57,6.91-13.39,1.44c1.39-2,2.78-4,4.08-6.11,1.67-2.55,3.17-5.17,4.75-7.79l15-1.62Z"/><path class="cls-3" d="M178.2,114.09l2.18,20.17L169,135.49l-.78-7.29-6,.65,3.66,33.89,5.78-.62,1.3,12L147,177l-1.3-12,5.86-.63-3.66-33.9-5.94.64.79,7.37-11.38,1.22-2.19-20.25Z"/><path class="cls-3" d="M230,127.54,216,129.06l-.64-5.94-9.88,1.06,1,9.13L220,131.84l1.47,13.65L207.91,147,209,157.08,219,156l-.74-6.86,14-1.51,2.15,19.92-44.78,4.83-1.31-12.13,5.78-.63L190.3,125l-5.78.63-1.29-12L228,108.79Z"/><path class="cls-3" d="M280.27,207.67l-6.11-57.89-9.2,1-2.09-19.81,45.05-4.74c10.76-1,22-1.61,29.45,7.75a26.64,26.64,0,0,1,5.35,13.26c.25,2.37.6,11.08-4.93,17.44-1.13,1.39-2.31,2.22-5.17,4.5a43.72,43.72,0,0,1,6.5,2.84,25.44,25.44,0,0,1,11.79,19.49c.91,8.64-2,18.4-8.43,24.44-6.94,6.37-17.26,7.46-26.45,8.57L273.21,229l-2.15-20.36Zm19.86-43,9.21-1c4-.42,7.24-.9,9.25-4.5a8,8,0,0,0,1.16-5.06,8.58,8.58,0,0,0-3-5.61c-2.49-2.13-5.59-2.09-9.09-1.86l-9.34,1Zm4,39.49,9.35-1c7.5-1.08,9.91-2.32,12-5.64a10.05,10.05,0,0,0-.65-11.49c-3.39-4-7.32-3.89-12.36-3.5L302,183.66Z"/><path class="cls-3" d="M368.42,198.37l-6.1-57.88-9.35,1-2.13-20.22,43.38-4.57c2.95-.17,6-.5,9-.67,12.5-.47,23.65,2.31,33.24,10.32,6,5.15,14.68,14.81,16.68,33.78a55.17,55.17,0,0,1-.49,15.43c-2.33,14.06-10.7,26.94-23.41,33.49-5.06,2.79-8.91,3.76-19.73,5.47l-48.4,5.1-2.13-20.23Zm24.64-4.43,13.25-1.39c5.27-.84,7.47-1.36,9.75-2.44,9.94-4.72,13.26-16.07,12.11-27-1.63-15.48-10.64-22-16.47-23.79-3.21-1.07-6.48-1.29-13.67-1.24l-10.73,1.14Z"/></g></g></svg>